<svg width="191" height="40" viewBox="0 0 191 40" fill="none" xmlns="http://www.w3.org/2000/svg">
<path d="M25.0156 32.4062C26.0312 33.2786 26.6237 34.4375 26.793 35.8828C26.793 35.9609 26.4805 36.332 25.8555 36.9961C25.2435 37.6602 24.4427 38.2721 23.4531 38.832C22.4635 39.4049 21.3503 39.6914 20.1133 39.6914C19.5534 39.6914 19.0326 39.6263 18.5508 39.4961C18.3945 39.4701 18.2578 39.4375 18.1406 39.3984C18.0234 39.3724 17.9258 39.3464 17.8477 39.3203C15.8424 38.6953 14.5339 36.0326 13.9219 31.332C13.4792 31.3711 13.0039 31.3906 12.4961 31.3906C8.08203 31.3906 4.94401 30.0365 3.08203 27.3281C1.23307 24.6198 0.308594 20.9219 0.308594 16.2344C0.308594 5.89583 4.37109 0.726562 12.4961 0.726562C15.7122 0.726562 18.2188 1.39714 20.0156 2.73828C21.8255 4.06641 23.069 5.86328 23.7461 8.12891C24.4362 10.3815 24.7812 13.0833 24.7812 16.2344C24.7812 22.7969 23.0234 27.237 19.5078 29.5547C20.0807 30.8698 20.862 32.224 21.8516 33.6172L22.0859 33.5781L22.125 33.6172L25.0156 32.4062ZM9.70312 24.5547C9.88542 24.75 10.3477 24.8997 11.0898 25.0039C11.832 25.1081 12.6263 25.1602 13.4727 25.1602C14.5404 25.1602 15.1523 25.1016 15.3086 24.9844C15.6341 24.4115 15.8815 23.4154 16.0508 21.9961C16.2201 20.5638 16.3047 18.9622 16.3047 17.1914C16.3047 15.3294 16.2135 13.6042 16.0312 12.0156C15.862 10.4141 15.6211 9.29427 15.3086 8.65625C14.9831 8.39583 14.5013 8.20052 13.8633 8.07031C13.2253 7.9401 12.5221 7.86849 11.7539 7.85547C11.3112 7.85547 10.9076 7.88151 10.543 7.93359C10.1914 7.97266 9.9375 8.03776 9.78125 8.12891C9.40365 8.77995 9.1237 9.72396 8.94141 10.9609C8.77214 12.1849 8.6875 13.5846 8.6875 15.1602C8.6875 16.944 8.78516 18.7214 8.98047 20.4922C9.17578 22.263 9.41667 23.6172 9.70312 24.5547ZM36.8294 27.36C36.456 28.5333 35.8027 29.4933 34.8694 30.24C33.9627 30.9867 32.9894 31.36 31.9494 31.36C30.776 31.36 29.9094 30.9867 29.3494 30.24C28.7894 29.4933 28.5094 28.3467 28.5094 26.8V20.28C28.5094 19.9067 28.336 19.72 27.9894 19.72H26.7494L26.6294 19.28C27.1627 18.8267 27.8294 18.4533 28.6294 18.16C29.4294 17.8667 30.216 17.72 30.9894 17.72C31.336 17.72 31.6027 17.8 31.7894 17.96C32.0027 18.12 32.1094 18.3333 32.1094 18.6V26.6C32.1094 27.5067 32.2427 28.2133 32.5094 28.72C32.776 29.2 33.1494 29.44 33.6294 29.44C34.616 29.44 35.4027 28.84 35.9894 27.64C36.6027 26.4133 36.9094 24.8267 36.9094 22.88C36.9094 21.84 36.8294 21.04 36.6694 20.48C36.536 19.8933 36.2827 19.3867 35.9094 18.96L35.5494 18.52L35.8694 18.16L40.4694 17.8V28.72C40.4694 29.52 40.7094 29.92 41.1894 29.92C41.696 29.92 42.1894 29.72 42.6694 29.32L42.9894 29.72C42.056 30.8133 40.896 31.36 39.5094 31.36C38.496 31.36 37.7894 31.0667 37.3894 30.48C37.016 29.8933 36.8294 28.8533 36.8294 27.36ZM51.8178 30.04C52.5911 30.04 53.2711 29.9067 53.8578 29.64C54.4445 29.3467 55.0178 28.8667 55.5778 28.2L56.0578 28.56C55.4445 29.44 54.6578 30.1333 53.6978 30.64C52.7645 31.12 51.7378 31.36 50.6178 31.36C49.3911 31.36 48.2845 31.0667 47.2978 30.48C46.3378 29.8933 45.5778 29.0933 45.0178 28.08C44.4578 27.04 44.1778 25.8667 44.1778 24.56C44.1778 22.48 44.8045 20.8267 46.0578 19.6C47.3378 18.3467 49.0311 17.72 51.1378 17.72C52.6311 17.72 53.8445 18.08 54.7778 18.8C55.7378 19.4933 56.2178 20.4 56.2178 21.52C56.2178 22.8 55.6711 23.8267 54.5778 24.6C53.5111 25.3467 52.0445 25.72 50.1778 25.72C49.4311 25.72 48.7511 25.6667 48.1378 25.56C48.2711 26.9467 48.6711 28.04 49.3378 28.84C50.0045 29.64 50.8311 30.04 51.8178 30.04ZM50.6978 18.68C49.8711 18.68 49.2178 19.1867 48.7378 20.2C48.2845 21.1867 48.0578 22.5733 48.0578 24.36V25C48.3511 25 48.7111 24.9733 49.1378 24.92C50.2578 24.7867 51.1111 24.4267 51.6978 23.84C52.3111 23.2267 52.6178 22.4267 52.6178 21.44C52.6178 20.64 52.4311 19.9867 52.0578 19.48C51.7111 18.9467 51.2578 18.68 50.6978 18.68ZM65.6069 30.04C66.3802 30.04 67.0602 29.9067 67.6469 29.64C68.2335 29.3467 68.8069 28.8667 69.3669 28.2L69.8469 28.56C69.2335 29.44 68.4469 30.1333 67.4869 30.64C66.5535 31.12 65.5269 31.36 64.4069 31.36C63.1802 31.36 62.0735 31.0667 61.0869 30.48C60.1269 29.8933 59.3669 29.0933 58.8069 28.08C58.2469 27.04 57.9669 25.8667 57.9669 24.56C57.9669 22.48 58.5935 20.8267 59.8469 19.6C61.1269 18.3467 62.8202 17.72 64.9269 17.72C66.4202 17.72 67.6335 18.08 68.5669 18.8C69.5269 19.4933 70.0069 20.4 70.0069 21.52C70.0069 22.8 69.4602 23.8267 68.3669 24.6C67.3002 25.3467 65.8335 25.72 63.9669 25.72C63.2202 25.72 62.5402 25.6667 61.9269 25.56C62.0602 26.9467 62.4602 28.04 63.1269 28.84C63.7935 29.64 64.6202 30.04 65.6069 30.04ZM64.4869 18.68C63.6602 18.68 63.0069 19.1867 62.5269 20.2C62.0735 21.1867 61.8469 22.5733 61.8469 24.36V25C62.1402 25 62.5002 24.9733 62.9269 24.92C64.0469 24.7867 64.9002 24.4267 65.4869 23.84C66.1002 23.2267 66.4069 22.4267 66.4069 21.44C66.4069 20.64 66.2202 19.9867 65.8469 19.48C65.5002 18.9467 65.0469 18.68 64.4869 18.68ZM85.6759 28.72C85.6759 29.52 85.9293 29.92 86.4359 29.92C86.9426 29.92 87.4359 29.72 87.9159 29.32L88.2359 29.72C87.2493 30.8133 86.0893 31.36 84.7559 31.36C83.7959 31.36 83.1026 31.12 82.6759 30.64C82.2759 30.1333 82.0759 29.32 82.0759 28.2V22.08C82.0759 20.5333 81.5826 19.76 80.5959 19.76C79.6359 19.76 78.8493 20.4133 78.2359 21.72C77.6493 23.0267 77.3559 24.7333 77.3559 26.84C77.3559 27.64 77.4226 28.2933 77.5559 28.8C77.6893 29.28 77.9026 29.7467 78.1959 30.2L78.5159 30.6L78.1959 31H72.3959L72.1559 30.32L72.7159 30.2C73.1426 30.0933 73.4226 29.9333 73.5559 29.72C73.6893 29.48 73.7559 29.0267 73.7559 28.36V20.56C73.7559 20.0533 73.5826 19.8 73.2359 19.8H71.9559L71.8359 19.36C72.3693 18.9067 73.0359 18.5333 73.8359 18.24C74.6359 17.9467 75.4359 17.8 76.2359 17.8C76.5826 17.8 76.8493 17.88 77.0359 18.04C77.2493 18.2 77.3559 18.4133 77.3559 18.68V22.12C77.7293 20.8667 78.3959 19.8267 79.3559 19C80.3159 18.1467 81.3293 17.72 82.3959 17.72C83.5426 17.72 84.3693 18.0933 84.8759 18.84C85.4093 19.5867 85.6759 20.7733 85.6759 22.4V28.72ZM97.8867 28.9883C97.8867 27.6341 97.8672 26.1562 97.8281 24.5547C97.7891 22.9401 97.763 21.8789 97.75 21.3711C97.6458 17.9857 97.5938 15.4401 97.5938 13.7344C97.5938 11.2214 97.6589 9.07292 97.7891 7.28906L95.1914 6.87891C95.0221 6.17578 94.9049 5.58333 94.8398 5.10156C94.7617 4.61979 94.7227 4.09245 94.7227 3.51953V3.07031C94.9961 2.73177 95.4323 2.38021 96.0312 2.01562C96.6432 1.65104 97.3529 1.34505 98.1602 1.09766C98.9805 0.85026 99.8073 0.726562 100.641 0.726562C102.177 0.726562 103.401 1.04557 104.312 1.68359C105.224 2.32161 105.68 3.31771 105.68 4.67188C105.68 7.51042 105.523 12.25 105.211 18.8906L106.422 18.6172C107.242 17.1458 108.154 15.2122 109.156 12.8164C110.172 10.4206 110.836 8.5651 111.148 7.25L108.727 6.83984C108.557 6.13672 108.434 5.54427 108.355 5.0625C108.29 4.58073 108.258 4.05339 108.258 3.48047V3.03125C108.518 2.70573 108.98 2.36068 109.645 1.99609C110.322 1.61849 111.096 1.30599 111.969 1.05859C112.841 0.811198 113.701 0.6875 114.547 0.6875C115.471 0.6875 116.311 0.84375 117.066 1.15625C117.822 1.46875 118.421 1.95052 118.863 2.60156C119.319 3.2526 119.547 4.05339 119.547 5.00391C119.547 6.64453 118.85 8.61719 117.457 10.9219C116.077 13.2266 114.417 15.5378 112.477 17.8555C113.115 19.1836 113.798 20.4336 114.527 21.6055C115.257 22.7773 115.901 23.6628 116.461 24.2617C116.747 24.1185 117.014 23.9297 117.262 23.6953C117.522 23.4609 117.854 23.1224 118.258 22.6797L118.688 22.2305L121.09 24.0469V24.4766C121.09 26.5469 120.569 28.2135 119.527 29.4766C118.499 30.7396 116.936 31.3711 114.84 31.3711C114.059 31.3711 113.316 31.2604 112.613 31.0391C111.637 30.7396 110.79 30.1471 110.074 29.2617C109.371 28.3763 108.811 27.3542 108.395 26.1953C107.991 25.0234 107.711 23.819 107.555 22.582C106.904 22.7383 106.051 22.849 104.996 22.9141C104.879 25.1406 104.729 27.6862 104.547 30.5508C103.492 31.1237 102.32 31.4102 101.031 31.4102C99.9115 31.4102 98.8568 31.2083 97.8672 30.8047L97.8867 28.9883ZM121.795 24.56C121.795 22.4533 122.395 20.7867 123.595 19.56C124.822 18.3333 126.475 17.72 128.555 17.72C130.635 17.72 132.288 18.3467 133.515 19.6C134.742 20.8267 135.355 22.48 135.355 24.56C135.355 26.64 134.742 28.2933 133.515 29.52C132.288 30.7467 130.635 31.36 128.555 31.36C126.475 31.36 124.822 30.7467 123.595 29.52C122.395 28.2933 121.795 26.64 121.795 24.56ZM131.315 24.64C131.315 22.8533 131.062 21.4 130.555 20.28C130.048 19.1333 129.408 18.56 128.635 18.56C127.782 18.56 127.088 19.12 126.555 20.24C126.022 21.3333 125.755 22.7733 125.755 24.56C125.755 26.3733 125.995 27.8133 126.475 28.88C126.982 29.9467 127.648 30.48 128.475 30.48C129.302 30.48 129.982 29.9467 130.515 28.88C131.048 27.7867 131.315 26.3733 131.315 24.64ZM152.466 29.72C151.479 30.8133 150.319 31.36 148.986 31.36C148.159 31.36 147.546 31.1867 147.146 30.84C146.746 30.4667 146.479 29.8667 146.346 29.04C145.652 29.84 144.932 30.4267 144.186 30.8C143.439 31.1733 142.612 31.36 141.706 31.36C140.372 31.36 139.279 30.7733 138.426 29.6C137.599 28.4267 137.186 26.9067 137.186 25.04C137.186 22.8 137.772 21.0267 138.946 19.72C140.119 18.3867 141.719 17.72 143.746 17.72C144.679 17.72 145.532 17.9333 146.306 18.36V13.92C146.306 13.5467 146.132 13.36 145.786 13.36H144.426L144.266 12.96C144.799 12.48 145.479 12.1067 146.306 11.84C147.132 11.5467 147.946 11.4 148.746 11.4C149.092 11.4 149.372 11.48 149.586 11.64C149.799 11.7733 149.906 11.9733 149.906 12.24V28.72C149.906 29.52 150.159 29.92 150.666 29.92C151.172 29.92 151.666 29.72 152.146 29.32L152.466 29.72ZM143.786 29.44C144.799 29.44 145.639 28.88 146.306 27.76V19.16C145.772 18.8933 145.186 18.76 144.546 18.76C142.306 18.76 141.186 20.6933 141.186 24.56C141.186 26.1333 141.399 27.3467 141.826 28.2C142.279 29.0267 142.932 29.44 143.786 29.44ZM161.154 30.04C161.927 30.04 162.607 29.9067 163.194 29.64C163.78 29.3467 164.354 28.8667 164.914 28.2L165.394 28.56C164.78 29.44 163.994 30.1333 163.034 30.64C162.1 31.12 161.074 31.36 159.954 31.36C158.727 31.36 157.62 31.0667 156.634 30.48C155.674 29.8933 154.914 29.0933 154.354 28.08C153.794 27.04 153.514 25.8667 153.514 24.56C153.514 22.48 154.14 20.8267 155.394 19.6C156.674 18.3467 158.367 17.72 160.474 17.72C161.967 17.72 163.18 18.08 164.114 18.8C165.074 19.4933 165.554 20.4 165.554 21.52C165.554 22.8 165.007 23.8267 163.914 24.6C162.847 25.3467 161.38 25.72 159.514 25.72C158.767 25.72 158.087 25.6667 157.474 25.56C157.607 26.9467 158.007 28.04 158.674 28.84C159.34 29.64 160.167 30.04 161.154 30.04ZM160.034 18.68C159.207 18.68 158.554 19.1867 158.074 20.2C157.62 21.1867 157.394 22.5733 157.394 24.36V25C157.687 25 158.047 24.9733 158.474 24.92C159.594 24.7867 160.447 24.4267 161.034 23.84C161.647 23.2267 161.954 22.4267 161.954 21.44C161.954 20.64 161.767 19.9867 161.394 19.48C161.047 18.9467 160.594 18.68 160.034 18.68ZM176.023 17.72C176.876 17.72 177.569 17.9733 178.103 18.48C178.636 18.96 178.903 19.5867 178.903 20.36C178.903 21.08 178.689 21.6667 178.263 22.12C177.836 22.5467 177.276 22.76 176.583 22.76C176.049 22.76 175.556 22.6533 175.103 22.44C175.583 22.04 175.823 21.44 175.823 20.64C175.823 20.2667 175.743 19.9733 175.583 19.76C175.423 19.5467 175.209 19.44 174.943 19.44C174.303 19.44 173.769 20.0933 173.343 21.4C172.916 22.68 172.703 24.28 172.703 26.2C172.703 27.1867 172.756 27.9733 172.863 28.56C172.996 29.1467 173.209 29.6933 173.503 30.2L173.823 30.6L173.503 31H167.703L167.463 30.32L168.023 30.2C168.449 30.0933 168.729 29.9333 168.863 29.72C168.996 29.48 169.063 29.0267 169.063 28.36V20.56C169.063 20.0533 168.889 19.8 168.543 19.8H167.303L167.143 19.36C167.649 18.9067 168.276 18.5333 169.023 18.24C169.796 17.9467 170.556 17.8 171.303 17.8C171.649 17.8 171.929 17.88 172.143 18.04C172.356 18.2 172.463 18.4133 172.463 18.68V21.6H172.583C173.143 19.0133 174.289 17.72 176.023 17.72ZM183.958 20.44C183.958 21.1067 184.211 21.6533 184.718 22.08C185.251 22.48 186.051 22.9333 187.118 23.44C187.998 23.8667 188.678 24.24 189.158 24.56C189.638 24.8533 190.051 25.2533 190.398 25.76C190.771 26.2667 190.958 26.8667 190.958 27.56C190.958 28.7067 190.411 29.6267 189.318 30.32C188.251 31.0133 186.811 31.36 184.998 31.36C183.638 31.36 182.518 31.12 181.638 30.64C180.758 30.1333 180.318 29.48 180.318 28.68C180.318 28.1467 180.518 27.7067 180.918 27.36C181.318 26.9867 181.811 26.8 182.398 26.8C182.851 26.8 183.305 26.8933 183.758 27.08C183.305 27.4267 183.078 27.9867 183.078 28.76C183.078 29.2933 183.265 29.7067 183.638 30C184.011 30.2933 184.465 30.44 184.998 30.44C185.611 30.44 186.131 30.28 186.558 29.96C187.011 29.64 187.238 29.1867 187.238 28.6C187.238 28.04 187.011 27.6 186.558 27.28C186.131 26.9333 185.451 26.5333 184.518 26.08C183.665 25.68 182.971 25.32 182.438 25C181.931 24.6533 181.491 24.2 181.118 23.64C180.745 23.08 180.558 22.4 180.558 21.6C180.558 20.4 181.065 19.4533 182.078 18.76C183.091 18.0667 184.371 17.72 185.918 17.72C187.278 17.72 188.385 17.9733 189.238 18.48C190.118 18.9867 190.558 19.64 190.558 20.44C190.558 21.0533 190.371 21.5067 189.998 21.8C189.625 22.0933 189.145 22.24 188.558 22.24C187.998 22.24 187.505 22.12 187.078 21.88C187.558 21.4267 187.798 20.8533 187.798 20.16C187.798 19.7067 187.625 19.3467 187.278 19.08C186.931 18.7867 186.478 18.64 185.918 18.64C185.305 18.64 184.825 18.8133 184.478 19.16C184.131 19.5067 183.958 19.9333 183.958 20.44Z" fill="white"/>
</svg>
